<svg width="25" height="25" viewBox="0 0 25 25" fill="none" xmlns="http://www.w3.org/2000/svg">
<path d="M12.5 0C5.59692 0 0 5.59692 0 12.5C0 19.4031 5.59692 25 12.5 25C19.4031 25 25 19.4031 25 12.5C25 5.59692 19.4031 0 12.5 0Z" fill="white"/>
<path d="M13.7227 15.0518C14.1654 14.9087 14.7322 15.9964 15.3355 16.4127C15.7884 16.728 16.1352 16.6599 16.1352 16.6599L17.7434 16.6368C17.7434 16.6368 18.5839 16.5849 18.1866 15.9172C18.1537 15.8616 17.9536 15.4222 16.9896 14.5179C15.9815 13.5718 16.1181 13.7251 17.3318 12.0896C18.0713 11.0927 18.3671 10.4838 18.2745 10.2244C18.1856 9.97486 17.6425 10.0397 17.6425 10.0397L15.8305 10.0522C15.6541 10.0527 15.5046 10.1073 15.4365 10.2907C15.4351 10.2925 15.1489 11.0621 14.7674 11.7164C13.9612 13.1005 13.6394 13.1741 13.506 13.0875C13.2 12.887 13.2773 12.2832 13.2773 11.8539C13.2773 10.5125 13.4773 9.9531 12.8855 9.80863C12.6878 9.76047 12.5433 9.72898 12.0391 9.72435C11.3945 9.71463 10.8472 9.72435 10.5369 9.8767C10.3309 9.97996 10.173 10.2064 10.2688 10.2194C10.3892 10.2356 10.6592 10.2934 10.8037 10.4907C10.9893 10.7463 10.9838 11.3191 10.9838 11.3191C10.9838 11.3191 11.0898 12.8986 10.7337 13.0944C10.4893 13.2287 10.1549 12.9546 9.43581 11.6979C9.06861 11.0552 8.79124 10.3448 8.79124 10.3448C8.79124 10.3448 8.73753 10.2129 8.64029 10.1406C8.52452 10.055 8.36246 10.0277 8.36246 10.0277L6.64268 10.0388C6.64268 10.0388 6.3843 10.0462 6.28938 10.1601C6.2051 10.261 6.28243 10.4694 6.28243 10.4694C6.28243 10.4694 7.62945 13.6557 9.15474 15.2606C10.5532 16.734 12.1423 16.6363 12.1423 16.6363H12.8624C12.8624 16.6363 13.0796 16.6113 13.1907 16.4918C13.2944 16.3807 13.2898 16.1719 13.2898 16.1719C13.2898 16.1719 13.2754 15.1953 13.7227 15.0518Z" fill="#030A1A"/>
</svg>
