<svg width="25" height="25" viewBox="0 0 25 25" fill="none" xmlns="http://www.w3.org/2000/svg">
<path d="M12.5 0C5.59692 0 0 5.59692 0 12.5C0 19.4031 5.59692 25 12.5 25C19.4031 25 25 19.4031 25 12.5C25 5.59692 19.4031 0 12.5 0Z" fill="white"/>
<path d="M12.6803 6.88879C13.5788 6.88879 14.3095 7.64309 14.3095 8.57061C14.3095 9.49533 13.5788 10.2496 12.6803 10.2496C11.7818 10.2496 11.0511 9.49533 11.0511 8.57061C11.0511 7.64309 11.7818 6.88879 12.6803 6.88879ZM12.6803 12.6299C14.8508 12.6299 16.6153 10.8084 16.6153 8.57061C16.6153 6.33005 14.8508 4.50854 12.6803 4.50854C10.5099 4.50854 8.74807 6.33005 8.74807 8.57061C8.74807 10.8084 10.5099 12.6299 12.6803 12.6299ZM14.2716 15.9432C15.0727 15.7532 15.844 15.4264 16.5558 14.9654C17.0943 14.6162 17.2567 13.8815 16.9184 13.3255C16.5774 12.7668 15.8684 12.5991 15.3271 12.9511C13.7169 13.996 11.6438 13.996 10.0309 12.9511C9.49231 12.5991 8.78055 12.7668 8.44226 13.3255C8.10397 13.8815 8.26635 14.6162 8.80491 14.9654C9.51667 15.4264 10.288 15.7532 11.089 15.9432L8.8888 18.2117C8.43956 18.6755 8.43956 19.4298 8.8888 19.8935C9.11613 20.1254 9.40841 20.2427 9.7034 20.2427C9.99839 20.2427 10.2934 20.1254 10.5207 19.8935L12.6803 17.6641L14.8427 19.8935C15.2919 20.3601 16.0199 20.3601 16.4719 19.8935C16.9211 19.4298 16.9211 18.6755 16.4719 18.2117L14.2716 15.9432Z" fill="#030A1A"/>
</svg>
